<?xml version="1.0" encoding="utf-8"?>
<!-- Generator: Adobe Illustrator 23.0.2, SVG Export Plug-In . SVG Version: 6.00 Build 0)  -->
<svg version="1.1" id="Layer_1" xmlns="http://www.w3.org/2000/svg" xmlns:xlink="http://www.w3.org/1999/xlink" x="0px" y="0px"
	 viewBox="0 0 512 512" style="enable-background:new 0 0 512 512;" xml:space="preserve">
<style type="text/css">
	.st0{fill:#8C1515;}
	.st1{fill:#F9C002;}
	.st2{fill:#2094E8;}
	.st3{fill:#56BF46;}
</style>
<path class="st0" d="M370.4,334h18.2c5.2,0,10.4-5.2,10.4-10.4V136.4c0-5.2-5.2-10.4-10.4-10.4h-18.2c-5.2,0-10.4,5.2-10.4,10.4
	v187.2C360,328.8,365.2,334,370.4,334z"/>
<path class="st1" d="M214.4,334h18.2c5.2,0,10.4-5.2,10.4-10.4V162.4c0-5.2-5.2-10.4-10.4-10.4h-18.2c-5.2,0-10.4,5.2-10.4,10.4
	v161.2C204,328.8,209.2,334,214.4,334z"/>
<path class="st2" d="M292.4,334h18.2c5.2,0,10.4-5.2,10.4-10.4V214.4c0-5.2-5.2-10.4-10.4-10.4h-18.2c-5.2,0-10.4,5.2-10.4,10.4
	v109.2C282,328.8,287.2,334,292.4,334z"/>
<path d="M451,373H87V113c0-7.2-5.8-13-13-13H61c-7.2,0-13,5.8-13,13v273c0,14.4,11.6,26,26,26h377c7.2,0,13-5.8,13-13v-13
	C464,378.8,458.2,373,451,373z"/>
<path class="st3" d="M136.4,334h18.2c5.2,0,10.4-5.2,10.4-10.4v-57.2c0-5.2-5.2-10.4-10.4-10.4h-18.2c-5.2,0-10.4,5.2-10.4,10.4
	v57.2C126,328.8,131.2,334,136.4,334z"/>
</svg>
