<?xml version="1.0" encoding="utf-8"?>
<!-- Generator: Adobe Illustrator 25.2.1, SVG Export Plug-In . SVG Version: 6.00 Build 0)  -->
<svg version="1.1" id="Layer_1" xmlns="http://www.w3.org/2000/svg" xmlns:xlink="http://www.w3.org/1999/xlink" x="0px" y="0px"
	 viewBox="0 0 512 512" style="enable-background:new 0 0 512 512;" xml:space="preserve">
<style type="text/css">
	.st0{fill:#00ADDC;}
	.st1{fill:#662D91;}
	.st2{fill:#524FA1;}
	.st3{fill:#B72467;}
	.st4{fill:#ED1C24;}
</style>
<path class="st0" d="M149.3,56v80c0,13.3-10.7,24-24,24H24c-13.3,0-24-10.7-24-24V56c0-13.3,10.7-24,24-24h101.3
	C138.6,32,149.3,42.7,149.3,56L149.3,56z"/>
<path class="st1" d="M330.7,296v-80c0-13.3-10.7-24-24-24H205.3c-13.3,0-24,10.7-24,24v80c0,13.3,10.7,24,24,24h101.3
	C319.9,320,330.7,309.3,330.7,296z"/>
<path class="st1" d="M362.7,56v80c0,13.3,10.7,24,24,24H488c13.3,0,24-10.7,24-24V56c0-13.3-10.7-24-24-24H386.7
	C373.4,32,362.7,42.7,362.7,56z"/>
<path class="st2" d="M330.7,136V56c0-13.3-10.7-24-24-24H205.3c-13.3,0-24,10.7-24,24v80c0,13.3,10.7,24,24,24h101.3
	C319.9,160,330.7,149.3,330.7,136z"/>
<path class="st2" d="M125.3,192H24c-13.3,0-24,10.7-24,24v80c0,13.3,10.7,24,24,24h101.3c13.3,0,24-10.7,24-24v-80
	C149.3,202.7,138.6,192,125.3,192L125.3,192z"/>
<path class="st1" d="M0,376v80c0,13.3,10.7,24,24,24h101.3c13.3,0,24-10.7,24-24v-80c0-13.3-10.7-24-24-24H24
	C10.7,352,0,362.7,0,376z"/>
<path class="st3" d="M386.7,320H488c13.3,0,24-10.7,24-24v-80c0-13.3-10.7-24-24-24H386.7c-13.3,0-24,10.7-24,24v80
	C362.7,309.3,373.4,320,386.7,320z"/>
<path class="st4" d="M386.7,480H488c13.3,0,24-10.7,24-24v-80c0-13.3-10.7-24-24-24H386.7c-13.3,0-24,10.7-24,24v80
	C362.7,469.3,373.4,480,386.7,480z"/>
<path class="st3" d="M181.3,376v80c0,13.3,10.7,24,24,24h101.3c13.3,0,24-10.7,24-24v-80c0-13.3-10.7-24-24-24H205.3
	C192.1,352,181.3,362.7,181.3,376z"/>
</svg>
