<?xml version="1.0" encoding="utf-8"?>
<!-- Generator: Adobe Illustrator 25.0.0, SVG Export Plug-In . SVG Version: 6.00 Build 0)  -->
<svg version="1.1" id="Layer_1" xmlns="http://www.w3.org/2000/svg" xmlns:xlink="http://www.w3.org/1999/xlink" x="0px" y="0px"
	 viewBox="0 0 512 512" style="enable-background:new 0 0 512 512;" xml:space="preserve">
<style type="text/css">
	.st0{fill:#4D4D4D;}
	.st1{font-family:'Arial-BoldMT';}
	.st2{font-size:23.9562px;}
	.st3{font-size:15.4384px;}
	.st4{letter-spacing:-1;}
	.st5{fill:none;stroke:#4D4D4D;stroke-width:3;stroke-miterlimit:10;}
	.st6{fill:none;stroke:#4D4D4D;stroke-width:2;stroke-miterlimit:10;}
	.st7{fill:none;stroke:#4D4D4D;stroke-width:1.65;stroke-miterlimit:10;}
	.st8{fill:none;stroke:#4D4D4D;stroke-width:2;stroke-miterlimit:10;stroke-dasharray:6;}
	.st9{fill:none;stroke:#4D4D4D;stroke-width:1.65;stroke-miterlimit:10;stroke-dasharray:6;}
	.st10{fill:none;stroke:#4D4D4D;stroke-width:5;stroke-miterlimit:10;}
	.st11{fill:none;stroke:#4D4D4D;stroke-width:5;stroke-miterlimit:10;stroke-dasharray:6;}
	.st12{font-family:'Helvetica-Bold';}
</style>
<text transform="matrix(6.123234e-17 -1 1 6.123234e-17 19.8604 350.8516)" class="st0 st1 st2">L</text>
<text transform="matrix(6.123234e-17 -1 1 6.123234e-17 19.8604 338.9902)" class="st0 st1 st2">og</text>
<text transform="matrix(6.123234e-17 -1 1 6.123234e-17 28.7241 312.9492)" class="st0 st1 st3">2</text>
<text transform="matrix(6.123234e-17 -1 1 6.123234e-17 19.8604 298.8867)" class="st0 st1 st2 st4">F</text>
<text transform="matrix(6.123234e-17 -1 1 6.123234e-17 19.8604 287.0508)" class="st0 st1 st2">old Change</text>
<text transform="matrix(1 0 0 1 17.562 399.875)" class="st0 st1 st2">0</text>
<line class="st5" x1="63.2" y1="145.5" x2="64.6" y2="423.7"/>
<line class="st5" x1="46.8" y1="390" x2="511.3" y2="389.5"/>
<line class="st6" x1="109.4" y1="284.8" x2="109.4" y2="260.9"/>
<line class="st6" x1="109.4" y1="284.4" x2="109.4" y2="308.4"/>
<line class="st8" x1="326.8" y1="330.1" x2="326.8" y2="282.1"/>
<line class="st8" x1="326.8" y1="329.7" x2="326.8" y2="398.2"/>
<line class="st6" x1="317" y1="211.2" x2="317" y2="187.3"/>
<line class="st6" x1="317" y1="210.8" x2="317" y2="234.8"/>
<line class="st8" x1="109.4" y1="387.8" x2="109.4" y2="363.8"/>
<line class="st8" x1="109.4" y1="387.4" x2="109.4" y2="411.3"/>
<line class="st6" x1="402.2" y1="204.9" x2="402.2" y2="193.3"/>
<line class="st6" x1="402.2" y1="204.7" x2="402.2" y2="216.3"/>
<line class="st8" x1="491.8" y1="376.1" x2="491.8" y2="364.5"/>
<line class="st8" x1="491.8" y1="375.9" x2="491.8" y2="387.6"/>
<polyline class="st10" points="401.7,204.6 317.4,212.5 228.7,252.5 108,284.4 63.7,390 "/>
<polyline class="st11" points="494,377.6 329,365.1 63.7,390 "/>
<text transform="matrix(1 0 0 1 196.1367 101.2568)" class="st0 st12 st2">Tissue</text>
</svg>
