<svg id="Layer_1" data-name="Layer 1" xmlns="http://www.w3.org/2000/svg" viewBox="0 0 500 500"><defs><style>.cls-1{fill:none;stroke-width:31px;}.cls-1,.cls-2,.cls-3{stroke:#10397d;stroke-miterlimit:10;}.cls-2,.cls-3{fill:#10397d;}.cls-2{stroke-width:17px;}.cls-3{stroke-width:30.24px;}</style></defs><title>Globe Icon</title><path class="cls-1" d="M433,252A183,183,0,1,1,250,69,183,183,0,0,1,433,252Z"/><path class="cls-2" d="M256.5,411.5c-13,7-19-26-27-45s-40-6-46-32,5-27-13-33-46-56.19-46-87v-60a12,12,0,0,1,12-12h122a12,12,0,0,1,12,12v48a12,12,0,0,1-12,12H229.39s-33.89,48-27.89,62,90-12,80-3,8,11,16,40S269.5,404.5,256.5,411.5Z"/><path class="cls-3" d="M429,263.75a43.75,43.75,0,0,1-43.75,43.75c-24.16,0-24.16-87.5,0-87.5A43.75,43.75,0,0,1,429,263.75Z"/><path class="cls-2" d="M320.43,83.05l-50.69,67.26s-84.24-7.81-118.35-7.81c-24.25,0-29.91-20.78-29.91-20.78,51-36.22,107-55.22,124-49.22S320.43,83.05,320.43,83.05Z"/></svg>