<svg id="Layer_1" data-name="Layer 1" xmlns="http://www.w3.org/2000/svg" viewBox="0 0 427 452"><defs><style>.cls-1,.cls-3{fill:#369;}.cls-2{fill:#10397d;stroke:#11397e;stroke-width:2px;}.cls-2,.cls-3{stroke-linecap:round;stroke-linejoin:round;}.cls-3{stroke:#369;stroke-width:4px;}</style></defs><title>Lungs</title><path class="cls-1" d="M34,403.5c35,25,118.85,23.43,130,20,13-4,21,1,26-20s-30-105-69-82S34,403.5,34,403.5Z"/><path class="cls-1" d="M394.48,403.5c-35,25-118.86,23.43-130,20-13-4-21,1-26-20s30-105,69-82S394.48,403.5,394.48,403.5Z"/><path class="cls-2" d="M120.5,154c-37.49,32.81-73,80-87,133-10.43,39.48-5.32,92.28-2,116.65a6.43,6.43,0,0,0,10.68,3.93c7.18-6.47,18.3-13.72,31.36-12.58,23,2,39,48,47,22s34-43,40-13c4.66,23.28,19.54,17.06,26,13.1a6.4,6.4,0,0,0,3-5.46V144a6.43,6.43,0,0,0-7-6.41C167.53,138.91,132.9,143.15,120.5,154Z"/><path class="cls-2" d="M307.28,154c37.49,32.81,73,80,87,133,9.86,37.34,5.83,86.59,2.58,112.44a8.7,8.7,0,0,1-14,5.74C375.7,399.46,365.73,394,354.28,395c-23,2-39,48-47,22s-34-43-40-13c-4.31,21.53-17.37,17.82-24.4,14a8.76,8.76,0,0,1-4.6-7.69V146.46a8.71,8.71,0,0,1,9.56-8.67C263.86,139.38,295.54,143.73,307.28,154Z"/><path class="cls-3" d="M180,30.5c17,46,21,91,18,113s-74,80-74,80a24.68,24.68,0,0,1,17,11c17-18,45-60,58-59s5-9,25,0,49,43,50,48,21,11,21,11-5-10,3.91-11c0,0-71-58-74-80s1-67,18-113c0,0-28.91-26-40.91-19S180,30.5,180,30.5Z"/></svg>