<svg id="Layer_1" data-name="Layer 1" xmlns="http://www.w3.org/2000/svg" viewBox="0 0 700 500"><defs><style>.cls-1,.cls-2,.cls-3,.cls-5,.cls-6{fill:#4d4d4d;}.cls-1,.cls-12,.cls-13,.cls-2,.cls-3,.cls-4,.cls-5{stroke:#4d4d4d;stroke-miterlimit:10;}.cls-2{stroke-width:0.84px;}.cls-3{stroke-width:1.36px;}.cls-12,.cls-13,.cls-4{fill:none;}.cls-12,.cls-4,.cls-5{stroke-width:5px;}.cls-11,.cls-6{font-size:27px;font-family:MADEEvolveSans-Bold, MADE Evolve Sans;font-weight:700;}.cls-7{letter-spacing:-0.05em;}.cls-8{letter-spacing:-0.02em;}.cls-9{letter-spacing:-0.02em;}.cls-10{letter-spacing:-0.03em;}.cls-11{fill:#10397d;}.cls-12,.cls-13{stroke-dasharray:6;}.cls-13{stroke-width:2px;}</style></defs><title>MA_gene_inactive</title><rect class="cls-1" x="313" y="83.54" width="38" height="38"/><rect class="cls-2" x="376" y="240.21" width="27" height="38"/><rect class="cls-3" x="529" y="155.15" width="72" height="37"/><line class="cls-4" x1="351" y1="102.54" x2="451" y2="102.54"/><line class="cls-4" x1="313" y1="102.54" x2="237" y2="102.54"/><path class="cls-4" d="M451,102.54v0Z"/><line class="cls-4" x1="551" y1="171.5" x2="651" y2="171.5"/><path class="cls-4" d="M651,173.65v0Z"/><line class="cls-4" x1="403" y1="259.21" x2="439" y2="259.21"/><path class="cls-4" d="M439,259.21v0Z"/><line class="cls-4" x1="376" y1="259.21" x2="340" y2="259.21"/><path class="cls-4" d="M340,259.21v0Z"/><path class="cls-4" d="M237,102.54v0Z"/><line class="cls-4" x1="589" y1="173.65" x2="513" y2="173.65"/><path class="cls-4" d="M513,173.65v0Z"/><polygon class="cls-5" points="329 412.5 458 469.5 564 412.5 458 355.5 329 412.5"/><text class="cls-6" transform="translate(20.44 110.97)">GSE<tspan class="cls-7" x="50.11" y="0">1</tspan><tspan class="cls-8" x="59.45" y="0">2</tspan><tspan class="cls-9" x="72.55" y="0">3</tspan><tspan class="cls-10" x="86.02" y="0">4</tspan><tspan x="100.25" y="0">5</tspan></text><text class="cls-6" transform="translate(20.44 182.08)">GSE<tspan class="cls-7" x="50.11" y="0">1</tspan><tspan class="cls-8" x="59.45" y="0">2</tspan><tspan class="cls-9" x="72.55" y="0">3</tspan><tspan class="cls-10" x="86.02" y="0">4</tspan><tspan x="100.25" y="0">5</tspan></text><text class="cls-6" transform="translate(20.44 264.08)">GSE<tspan class="cls-7" x="50.11" y="0">1</tspan><tspan class="cls-8" x="59.45" y="0">2</tspan><tspan class="cls-9" x="72.55" y="0">3</tspan><tspan class="cls-10" x="86.02" y="0">4</tspan><tspan x="100.25" y="0">5</tspan></text><text class="cls-11" transform="translate(168.02 451.64)">0</text><line class="cls-12" x1="173.5" y1="48" x2="175.5" y2="412"/><line class="cls-13" x1="20.5" y1="323" x2="678.5" y2="323"/></svg>