<svg id="Layer_1" data-name="Layer 1" xmlns="http://www.w3.org/2000/svg" viewBox="0 0 700 500"><defs><style>.cls-1{font-size:27px;}.cls-1,.cls-3{fill:#10397d;font-family:MADEEvolveSans-Bold, MADE Evolve Sans;font-weight:700;}.cls-2{letter-spacing:-0.01em;}.cls-3{font-size:30px;letter-spacing:0em;}.cls-4{letter-spacing:-0.06em;}.cls-5{letter-spacing:0.01em;}.cls-6{letter-spacing:0em;}.cls-10,.cls-11,.cls-12,.cls-13,.cls-7,.cls-8,.cls-9{fill:none;stroke:#10397d;stroke-miterlimit:10;}.cls-7{stroke-width:3px;}.cls-10,.cls-8{stroke-width:2px;}.cls-11,.cls-9{stroke-width:1.65px;}.cls-10,.cls-11,.cls-13{stroke-dasharray:6;}.cls-12,.cls-13{stroke-width:5px;}</style></defs><title>MA_time</title><text class="cls-1" transform="translate(96.11 357.39) rotate(-90)"><tspan class="cls-2">L</tspan><tspan x="13.37" y="0">og</tspan></text><text class="cls-3" transform="translate(106.1 314.67) rotate(-90) scale(0.58)">2</text><text class="cls-1" transform="translate(96.11 305.84) rotate(-90)"> <tspan class="cls-4" x="7.02" y="0">F</tspan><tspan x="20.36" y="0">old Change</tspan></text><text class="cls-1" transform="translate(290.94 76.08)">Ti<tspan class="cls-5" x="21.54" y="0">s</tspan><tspan class="cls-6" x="32.99" y="0">sue</tspan></text><text class="cls-1" transform="translate(93.52 412.64)">0</text><line class="cls-7" x1="145.01" y1="126" x2="146.51" y2="439.5"/><line class="cls-7" x1="126.5" y1="401.5" x2="650" y2="401"/><line class="cls-8" x1="197" y1="283" x2="197" y2="256"/><path class="cls-9" d="M196.5,255.54h0Z"/><line class="cls-8" x1="197" y1="282.54" x2="197" y2="309.54"/><path class="cls-9" d="M196.5,310h0Z"/><line class="cls-10" x1="442" y1="334" x2="442" y2="279.91"/><path class="cls-10" d="M441.5,279h0Z"/><line class="cls-10" x1="442" y1="333.55" x2="442" y2="410.7"/><path class="cls-10" d="M441.5,412h0Z"/><line class="cls-8" x1="431" y1="200" x2="431" y2="173"/><path class="cls-9" d="M430.5,172.54h0Z"/><line class="cls-8" x1="431" y1="199.54" x2="431" y2="226.54"/><path class="cls-9" d="M430.5,227h0Z"/><line class="cls-10" x1="197" y1="399" x2="197" y2="372"/><path class="cls-11" d="M196.5,371.54h0Z"/><line class="cls-10" x1="197" y1="398.54" x2="197" y2="425.54"/><path class="cls-11" d="M196.5,426h0Z"/><line class="cls-8" x1="527" y1="192.88" x2="527" y2="179.77"/><path class="cls-8" d="M526.5,179.54h0Z"/><line class="cls-8" x1="527" y1="192.66" x2="527" y2="205.78"/><path class="cls-8" d="M526.5,206h0Z"/><line class="cls-10" x1="628" y1="385.88" x2="628" y2="372.77"/><path class="cls-10" d="M627.5,372.54h0Z"/><line class="cls-10" x1="628" y1="385.66" x2="628" y2="398.78"/><path class="cls-10" d="M627.5,399h0Z"/><polyline class="cls-12" points="526.5 192.5 431.5 201.5 331.5 246.5 195.5 282.5 145.5 401.5"/><polyline class="cls-13" points="630.5 387.5 444.5 373.5 145.5 401.5"/></svg>