<?xml version="1.0" encoding="utf-8"?>
<!-- Generator: Adobe Illustrator 25.0.0, SVG Export Plug-In . SVG Version: 6.00 Build 0)  -->
<svg version="1.1" id="Layer_1" xmlns="http://www.w3.org/2000/svg" xmlns:xlink="http://www.w3.org/1999/xlink" x="0px" y="0px"
	 viewBox="0 0 512 512" style="enable-background:new 0 0 512 512;" xml:space="preserve">
<style type="text/css">
	.st0{fill:#8C1515;stroke:#8C1515;stroke-miterlimit:10;}
	.st1{fill:#F9C002;stroke:#F9C002;stroke-width:0.84;stroke-miterlimit:10;}
	.st2{fill:none;stroke:#000000;stroke-width:5;stroke-linejoin:round;stroke-miterlimit:10;}
	.st3{fill:none;stroke:#000000;stroke-width:5;stroke-miterlimit:10;}
	.st4{fill:none;stroke:#10397D;stroke-width:5;stroke-miterlimit:10;}
	.st5{fill:#2094E8;stroke:#2094E8;stroke-width:5;stroke-miterlimit:10;}
	.st6{font-family:'Helvetica-Bold';}
	.st7{font-size:22.246px;}
	
		.st8{fill:none;stroke:#000000;stroke-width:5;stroke-linecap:round;stroke-linejoin:round;stroke-miterlimit:10;stroke-dasharray:6,12;}
	.st9{font-size:21.4221px;}
	.st10{fill:#56BF46;stroke:#56BF46;stroke-width:1.36;stroke-miterlimit:10;}
</style>
<g>
	<rect x="232.6" y="120.4" class="st0" width="31.3" height="31.3"/>
	<rect x="284.5" y="249.5" class="st1" width="22.2" height="31.3"/>
	<line class="st2" x1="263.9" y1="136" x2="346.3" y2="136"/>
	<line class="st2" x1="232.6" y1="136" x2="170" y2="136"/>
	<line class="st3" x1="428.7" y1="194.6" x2="511.1" y2="194.6"/>
	<line class="st3" x1="306.8" y1="265.1" x2="336.4" y2="265.1"/>
	<line class="st3" x1="284.5" y1="265.1" x2="254.9" y2="265.1"/>
	<line class="st3" x1="460" y1="194.6" x2="397.4" y2="194.6"/>
	<polygon class="st5" points="245.8,391.4 352.1,438.4 439.4,391.4 352.1,344.5 	"/>
	<text transform="matrix(1 0 0 1 113.1751 423.6768)" class="st6 st7">0</text>
	<line class="st8" x1="117.7" y1="91.1" x2="119.3" y2="391"/>
	<line class="st8" x1="0" y1="317.7" x2="511.1" y2="317.7"/>
	<text transform="matrix(1 0 0 1 -0.8855 201.5796)" class="st6 st9">GSE12345</text>
	<text transform="matrix(1 0 0 1 -0.8855 142.9897)" class="st6 st9">GSE12345</text>
	<text transform="matrix(1 0 0 1 -0.8855 269.4297)" class="st6 st9">GSE12345</text>
	<rect x="410.6" y="179.4" class="st10" width="59.3" height="30.5"/>
</g>
</svg>
