<?xml version="1.0" encoding="utf-8"?>
<!-- Generator: Adobe Illustrator 25.0.0, SVG Export Plug-In . SVG Version: 6.00 Build 0)  -->
<svg version="1.1" id="Layer_1" xmlns="http://www.w3.org/2000/svg" xmlns:xlink="http://www.w3.org/1999/xlink" x="0px" y="0px"
	 viewBox="0 0 512 512" style="enable-background:new 0 0 512 512;" xml:space="preserve">
<style type="text/css">
	.st0{fill:#8C1515;}
	.st1{fill:#F9C002;}
</style>
<g>
	<path class="st0" d="M256,345.6c0-22.2,5.4-43.3,14.6-62c-6.4-1.2-13-2-19.7-2h-13.4c-17.8,8.2-37.5,12.8-58.3,12.8
		s-40.5-4.6-58.3-12.8h-13.4C48.2,281.6,0,329.8,0,389.1v33.3c0,21.2,17.2,38.4,38.4,38.4h277.7C279.8,435.3,256,393.2,256,345.6z
		 M179.2,256c56.6,0,102.4-45.8,102.4-102.4S235.8,51.2,179.2,51.2S76.8,97,76.8,153.6S122.6,256,179.2,256z"/>
	<path class="st1" d="M396.8,230.4c-63.6,0-115.2,51.6-115.2,115.2s51.6,115.2,115.2,115.2S512,409.2,512,345.6
		S460.4,230.4,396.8,230.4z M396.8,281.5c10.8,0,19.5,8.7,19.5,19.5s-8.7,19.5-19.5,19.5s-19.5-8.7-19.5-19.5S386,281.5,396.8,281.5
		z M422.8,399.5c0,3.1-2.5,5.6-5.6,5.6h-40.9c-3.1,0-5.6-2.5-5.6-5.6v-11.1c0-3.1,2.5-5.6,5.6-5.6h5.6V353h-5.6
		c-3.1,0-5.6-2.5-5.6-5.6v-11.1c0-3.1,2.5-5.6,5.6-5.6H406c3.1,0,5.6,2.5,5.6,5.6v46.5h5.6c3.1,0,5.6,2.5,5.6,5.6L422.8,399.5
		L422.8,399.5z"/>
</g>
</svg>
