<?xml version="1.0" encoding="utf-8"?>
<!-- Generator: Adobe Illustrator 25.0.1, SVG Export Plug-In . SVG Version: 6.00 Build 0)  -->
<svg version="1.1" id="Layer_1" xmlns="http://www.w3.org/2000/svg" xmlns:xlink="http://www.w3.org/1999/xlink" x="0px" y="0px"
	 viewBox="0 0 516.1 352.6" style="enable-background:new 0 0 516.1 352.6;" xml:space="preserve">
<style type="text/css">
	.st0{fill:#8C1515;stroke:#8C1515;stroke-miterlimit:10;}
	.st1{fill:#F9C002;stroke:#F9C002;stroke-width:0.84;stroke-miterlimit:10;}
	.st2{fill:none;stroke:#000000;stroke-width:5;stroke-linejoin:round;stroke-miterlimit:10;}
	.st3{fill:none;stroke:#000000;stroke-width:5;stroke-miterlimit:10;}
	.st4{fill:#2094E8;stroke:#2094E8;stroke-width:5;stroke-miterlimit:10;}
	.st5{font-family:'Helvetica-Bold';}
	.st6{font-size:22.246px;}
	
		.st7{fill:none;stroke:#000000;stroke-width:5;stroke-linecap:round;stroke-linejoin:round;stroke-miterlimit:10;stroke-dasharray:6,12;}
	.st8{font-size:21.4221px;}
	.st9{fill:#56BF46;stroke:#56BF46;stroke-width:1.36;stroke-miterlimit:10;}
</style>
<g>
	<rect x="235.1" y="31.8" class="st0" width="31.3" height="31.3"/>
	<rect x="287" y="160.9" class="st1" width="22.2" height="31.3"/>
	<line class="st2" x1="266.4" y1="47.4" x2="348.8" y2="47.4"/>
	<line class="st2" x1="235.1" y1="47.4" x2="172.5" y2="47.4"/>
	<line class="st3" x1="431.2" y1="106" x2="513.6" y2="106"/>
	<line class="st3" x1="309.3" y1="176.5" x2="338.9" y2="176.5"/>
	<line class="st3" x1="287" y1="176.5" x2="257.4" y2="176.5"/>
	<line class="st3" x1="462.5" y1="106" x2="399.9" y2="106"/>
	<polygon class="st4" points="248.3,302.8 354.6,349.8 441.9,302.8 354.6,255.9 	"/>
	<text transform="matrix(1 0 0 1 115.6751 335.0768)" class="st5 st6">0</text>
	<line class="st7" x1="120.2" y1="2.5" x2="121.8" y2="302.4"/>
	<line class="st7" x1="2.5" y1="229.1" x2="513.6" y2="229.1"/>
	<text transform="matrix(1 0 0 1 1.6145 112.9796)" class="st5 st8">GSE12345</text>
	<text transform="matrix(1 0 0 1 1.6145 54.3897)" class="st5 st8">GSE12345</text>
	<text transform="matrix(1 0 0 1 1.6145 180.8297)" class="st5 st8">GSE12345</text>
	<rect x="413.1" y="90.8" class="st9" width="59.3" height="30.5"/>
</g>
</svg>
