<svg id="Layer_1" data-name="Layer 1" xmlns="http://www.w3.org/2000/svg" viewBox="0 0 427 343"><defs><style>.cls-1{fill:#10397d;stroke-width:2px;}.cls-1,.cls-2,.cls-3,.cls-5{stroke:#11397e;stroke-linecap:round;stroke-linejoin:round;}.cls-2,.cls-3,.cls-5{fill:none;stroke-width:3px;}.cls-3{stroke-dasharray:12.77 12.77;}.cls-4{fill:#11397e;}.cls-5{stroke-dasharray:12 12;}</style></defs><title>NetAnalysis icon</title><circle class="cls-1" cx="88" cy="66.5" r="28"/><circle class="cls-1" cx="324" cy="268.5" r="56"/><circle class="cls-1" cx="66" cy="212.5" r="22"/><circle class="cls-1" cx="277" cy="74.5" r="34"/><path class="cls-2" d="M66,190.5q2.25-2.08,4.33-4.16"/><path class="cls-3" d="M79,177c21.11-24.75,26.25-47.59,26.44-63.54"/><path class="cls-2" d="M105.27,107.07c-.16-2.18-.4-4.17-.68-6"/><path class="cls-4" d="M102,90.76c3,4.45,7.54,9.76,11.73,12.73l-8.9-1-7.47,4.94C99.71,102.89,101.34,96.08,102,90.76Z"/><path class="cls-5" d="M87.5,212c67-18,136-17,155-7,10.58,5.57,20.08,14.08,26.41,20.54"/><polygon class="cls-4" points="277 234.5 260.39 226.63 268.25 224.92 270.65 217.25 277 234.5"/><path class="cls-5" d="M249.51,94.5c-52.58,23.86-125.75,76.17-151.82,95.31"/><polygon class="cls-4" points="88 197 97.57 181.31 98.44 189.3 105.82 192.5 88 197"/><path class="cls-5" d="M323.5,212c31.17-75.34,19.61-99.08-1.91-112.8"/><polygon class="cls-4" points="311 93.4 329.23 95.71 322.3 99.78 322.4 107.81 311 93.4"/></svg>