<svg id="Layer_1" data-name="Layer 1" xmlns="http://www.w3.org/2000/svg" viewBox="0 0 500 500"><defs><style>.cls-1,.cls-4{fill:#4d4d4d;}.cls-1,.cls-2,.cls-3,.cls-5{stroke:#4d4d4d;stroke-linecap:round;stroke-linejoin:round;}.cls-1{stroke-width:2px;}.cls-2,.cls-3,.cls-5{fill:none;stroke-width:3px;}.cls-3{stroke-dasharray:12.77 12.77;}.cls-5{stroke-dasharray:12 12;}</style></defs><title>Network_inactive</title><circle class="cls-1" cx="124.5" cy="145" r="28"/><circle class="cls-1" cx="360.5" cy="347" r="56"/><circle class="cls-1" cx="102.5" cy="291" r="22"/><circle class="cls-1" cx="313.5" cy="153" r="34"/><path class="cls-2" d="M102.5,269q2.25-2.08,4.33-4.16"/><path class="cls-3" d="M115.51,255.49C136.62,230.74,141.76,207.9,142,192"/><path class="cls-2" d="M141.77,185.57c-.16-2.18-.4-4.17-.68-6"/><path class="cls-4" d="M138.48,169.26c3,4.45,7.54,9.76,11.73,12.73l-8.9-1-7.47,4.94C136.21,181.39,137.84,174.58,138.48,169.26Z"/><path class="cls-5" d="M124,290.5c67-18,136-17,155-7,10.58,5.57,20.08,14.08,26.41,20.54"/><polygon class="cls-4" points="313.5 313 296.89 305.13 304.75 303.42 307.15 295.75 313.5 313"/><path class="cls-5" d="M286,173c-52.58,23.86-125.75,76.17-151.82,95.31"/><polygon class="cls-4" points="124.5 275.5 134.07 259.81 134.94 267.8 142.32 271 124.5 275.5"/><path class="cls-5" d="M360,290.5c31.17-75.34,19.61-99.08-1.91-112.8"/><polygon class="cls-4" points="347.5 171.9 365.73 174.21 358.8 178.28 358.9 186.31 347.5 171.9"/></svg>