<?xml version="1.0" encoding="utf-8"?>
<!-- Generator: Adobe Illustrator 24.3.0, SVG Export Plug-In . SVG Version: 6.00 Build 0)  -->
<svg version="1.1" id="Layer_1" xmlns="http://www.w3.org/2000/svg" xmlns:xlink="http://www.w3.org/1999/xlink" x="0px" y="0px"
	 viewBox="0 0 512 512" style="enable-background:new 0 0 512 512;" xml:space="preserve">
<style type="text/css">
	.st0{fill:#4D4D4D;stroke:#4D4D4D;stroke-width:2;stroke-linecap:round;stroke-linejoin:round;}
	.st1{fill:none;stroke:#4D4D4D;stroke-width:8;stroke-linecap:round;stroke-linejoin:round;stroke-dasharray:12,14;}
	.st2{fill:#4D4D4D;stroke:#4D4D4D;stroke-width:6;stroke-linecap:round;stroke-linejoin:round;stroke-miterlimit:10;}
</style>
<circle class="st0" cx="68.5" cy="90.1" r="42.4"/>
<circle class="st0" cx="425.4" cy="395.5" r="84.6"/>
<circle class="st0" cx="35.2" cy="310.8" r="33.2"/>
<circle class="st0" cx="354.2" cy="102.2" r="51.4"/>
<path class="st1" d="M41,277.6c56.7-40.4,69.8-80.4,56.1-124.1"/>
<path class="st1" d="M67.8,310c154.2-38.8,222.4-22.7,271.2,16.7"/>
<polygon class="st2" points="353.8,339.4 327.4,330.8 338.9,326.7 341.1,314.7 "/>
<path class="st1" d="M312.7,132.4c-79.5,36-188.9,114.4-228.3,143.3"/>
<polygon class="st2" points="68.5,287.4 83,263.6 84.4,275.7 95.5,280.6 "/>
<path class="st1" d="M427.3,310.8c48.5-106.8,28.1-149.7-4.5-170.5"/>
<polygon class="st2" points="405.7,130.7 433.2,134.2 422.8,140.4 422.9,152.5 "/>
<polygon class="st2" points="89.6,135.2 109.1,155.1 97.1,153.4 89.6,163 "/>
</svg>
