<svg id="Layer_1" data-name="Layer 1" xmlns="http://www.w3.org/2000/svg" viewBox="0 0 521 323"><defs><style>.cls-1,.cls-3{fill:#fff;}.cls-1,.cls-5{stroke:#11397e;stroke-linecap:round;}.cls-1,.cls-4,.cls-5{stroke-miterlimit:10;}.cls-1{stroke-width:9.3px;}.cls-2{fill:#369;}.cls-3{font-size:25px;font-family:Arial-Black, Arial Black;font-weight:800;}.cls-4,.cls-5{fill:none;}.cls-4{stroke:#10397d;stroke-width:19px;}.cls-5{stroke-width:6px;}.cls-6{fill:#10397d;}</style></defs><title>OmicsComp. Icon</title><line class="cls-1" x1="136.56" y1="109.46" x2="98.64" y2="131.36"/><line class="cls-1" x1="174.31" y1="131.36" x2="136.38" y2="109.46"/><line class="cls-1" x1="136.56" y1="68.43" x2="98.64" y2="90.33"/><line class="cls-1" x1="174.31" y1="90.33" x2="136.38" y2="68.43"/><line class="cls-1" x1="136.56" y1="28.5" x2="98.64" y2="50.39"/><line class="cls-1" x1="174.31" y1="50.39" x2="136.38" y2="28.5"/><line class="cls-1" x1="212.05" y1="28.5" x2="174.13" y2="50.39"/><line class="cls-1" x1="249.8" y1="50.39" x2="211.87" y2="28.5"/><line class="cls-1" x1="287.54" y1="28.5" x2="249.62" y2="50.39"/><line class="cls-1" x1="325.29" y1="50.39" x2="287.36" y2="28.5"/><line class="cls-1" x1="212.05" y1="68.98" x2="174.13" y2="90.88"/><line class="cls-1" x1="249.8" y1="90.88" x2="211.87" y2="68.98"/><line class="cls-1" x1="287.54" y1="68.98" x2="249.62" y2="90.88"/><line class="cls-1" x1="325.29" y1="90.88" x2="287.36" y2="68.98"/><line class="cls-1" x1="212.05" y1="109.46" x2="174.13" y2="131.36"/><line class="cls-1" x1="249.8" y1="131.36" x2="211.87" y2="109.46"/><line class="cls-1" x1="287.54" y1="109.46" x2="249.62" y2="131.36"/><line class="cls-1" x1="325.29" y1="131.36" x2="287.36" y2="109.46"/><line class="cls-1" x1="30.34" y1="90.96" x2="52.23" y2="53.03"/><line class="cls-1" x1="52.23" y1="128.7" x2="30.34" y2="90.78"/><rect class="cls-2" x="42.5" y="196" width="39" height="81" rx="10"/><text class="cls-3" transform="translate(52.32 227.17)">A</text><rect class="cls-2" x="99" y="196.5" width="39" height="81" rx="10"/><text class="cls-3" transform="translate(108.82 227.67)">C</text><rect class="cls-2" x="158" y="196.5" width="39" height="81" rx="10"/><text class="cls-3" transform="translate(167.82 227.67)">C</text><rect class="cls-2" x="212" y="196.5" width="39" height="81" rx="10"/><text class="cls-3" transform="translate(221.13 227.67)">U</text><line class="cls-4" x1="39" y1="277" x2="303" y2="277"/><circle class="cls-5" cx="76.44" cy="90.56" r="8.21"/><circle class="cls-5" cx="76.44" cy="128.85" r="8.21"/><circle class="cls-5" cx="76.44" cy="50.62" r="8.21"/><line class="cls-5" x1="30" y1="90.5" x2="52" y2="90.5"/><circle class="cls-6" cx="429.33" cy="69" r="28.33"/><text class="cls-3" transform="translate(418.92 76)">G</text><circle class="cls-6" cx="401.33" cy="143" r="28.33"/><text class="cls-3" transform="translate(393 150)">L</text><circle class="cls-6" cx="405.33" cy="217" r="28.33"/><text class="cls-3" transform="translate(395.61 224)">V</text><circle class="cls-6" cx="462.33" cy="276" r="28.33"/><text class="cls-3" transform="translate(454 283)">F</text></svg>