<?xml version="1.0" encoding="utf-8"?>
<!-- Generator: Adobe Illustrator 24.3.0, SVG Export Plug-In . SVG Version: 6.00 Build 0)  -->
<svg version="1.1" id="Layer_1" xmlns="http://www.w3.org/2000/svg" xmlns:xlink="http://www.w3.org/1999/xlink" x="0px" y="0px"
	 viewBox="0 0 512 512" style="enable-background:new 0 0 512 512;" xml:space="preserve">
<style type="text/css">
	.st0{fill:#56BF46;}
	.st1{fill:#F9C002;}
	.st2{enable-background:new    ;}
	.st3{fill:#FFFFFF;stroke:#FFFFFF;stroke-linecap:round;stroke-linejoin:round;stroke-miterlimit:10;}
	.st4{fill:#8C1515;}
	.st5{fill:#2094E8;}
	.st6{fill:#FFFFFF;}
</style>
<g>
	<path class="st0" d="M86,179.4c0.8,0,1.6-0.2,2.3-0.6l41.2-23.8l39.3,22.7c0,0,0,0,0,0c0.9,1.5,2.4,2.3,4,2.3
		c0.8,0,1.6-0.2,2.3-0.6l41.2-23.8l40.3,23.2c0.9,0.8,2,1.2,3.1,1.2c0,0,0.1,0,0.1,0c0,0,0.1,0,0.1,0c1.1,0,2.2-0.4,3.1-1.2
		l40.3-23.2l41.2,23.8c0.7,0.4,1.5,0.6,2.3,0.6c1.6,0,3.2-0.8,4-2.3c1.3-2.2,0.5-5.1-1.7-6.4l-42.7-24.7c-0.9-0.8-2-1.2-3.1-1.1
		c-1.1,0-2.3,0.4-3.1,1.1L259.9,170l-40.3-23.3c-0.9-0.8-2-1.2-3.1-1.1c-1.1,0-2.3,0.4-3.1,1.1l-39.8,23l-40.9-23.6
		c-0.9-0.8-2-1.2-3.1-1.1c-1.1,0-2.3,0.4-3.1,1.1l-42.7,24.7c-2.2,1.3-3,4.1-1.7,6.4C82.8,178.6,84.4,179.4,86,179.4z"/>
	<path class="st0" d="M86,133.4c0.8,0,1.6-0.2,2.3-0.6l41.2-23.8l40.3,23.2c0.9,0.8,2,1.2,3.1,1.2c0,0,0.1,0,0.1,0c0,0,0.1,0,0.1,0
		c1.1,0,2.2-0.4,3.1-1.2l40.3-23.2l40.3,23.2c0.9,0.8,2,1.2,3.1,1.2c0,0,0.1,0,0.1,0c0,0,0.1,0,0.1,0c1.1,0,2.2-0.4,3.1-1.2
		l40.3-23.2l41.2,23.8c0.7,0.4,1.5,0.6,2.3,0.6c1.6,0,3.2-0.8,4-2.3c1.3-2.2,0.5-5.1-1.7-6.4l-42.7-24.7c-0.9-0.8-2-1.2-3.1-1.1
		c-1.1,0-2.3,0.4-3.2,1.1l-40.3,23.3l-40.3-23.3c-0.9-0.8-2-1.2-3.1-1.1c-1.1,0-2.3,0.4-3.1,1.1L173,123.4l-40.3-23.3
		c-0.9-0.8-2-1.2-3.1-1.1c-1.1,0-2.3,0.4-3.1,1.1l-42.7,24.7c-2.2,1.3-3,4.1-1.7,6.4C82.8,132.6,84.4,133.4,86,133.4z"/>
	<path class="st0" d="M349.2,218l-42.7-24.7c-0.9-0.8-2-1.2-3.1-1.1c-1.1,0-2.3,0.4-3.1,1.1l-40.3,23.3l-40.3-23.3
		c-0.9-0.8-2-1.2-3.1-1.1c-1.1,0-2.3,0.4-3.1,1.1L173,216.6l-40.3-23.3c-0.9-0.8-2-1.2-3.1-1.1c-1.1,0-2.3,0.4-3.1,1.1L83.7,218
		c-2.2,1.3-3,4.1-1.7,6.4c0.9,1.5,2.4,2.3,4,2.3c0.8,0,1.6-0.2,2.3-0.6l41.2-23.8l40.3,23.2c0.9,0.8,2,1.2,3.1,1.2c0,0,0.1,0,0.1,0
		c0,0,0.1,0,0.1,0c1.1,0,2.2-0.4,3.1-1.2l40.3-23.2l40.3,23.2c0.9,0.8,2,1.2,3.1,1.2c0,0,0.1,0,0.1,0c0,0,0.1,0,0.1,0
		c1.1,0,2.2-0.4,3.1-1.2l40.3-23.2l41.2,23.8c0.7,0.4,1.5,0.6,2.3,0.6c1.6,0,3.2-0.8,4-2.3C352.2,222.1,351.4,219.2,349.2,218z"/>
</g>
<g>
	<path class="st1" d="M27.5,296.4h21.9c6.4,0,11.5,5.2,11.5,11.5v70.2c0,6.4-5.2,11.5-11.5,11.5H27.5c-6.4,0-11.5-5.2-11.5-11.5
		v-70.2C16,301.5,21.1,296.4,27.5,296.4z"/>
	<g class="st2">
		<path class="st3" d="M48.8,332.3h-4.5l-1.8-4.7h-8.2l-1.7,4.7h-4.4l8-20.6h4.4L48.8,332.3z M41.1,324.1l-2.8-7.6l-2.8,7.6H41.1z"
			/>
	</g>
</g>
<g>
	<path class="st1" d="M92.4,297h21.9c6.4,0,11.5,5.2,11.5,11.5v70.2c0,6.4-5.2,11.5-11.5,11.5H92.4c-6.4,0-11.5-5.2-11.5-11.5v-70.2
		C80.9,302.1,86,297,92.4,297z"/>
	<g class="st2">
		<path class="st3" d="M108.2,325.3l4,1.3c-0.6,2.2-1.6,3.9-3.1,5c-1.4,1.1-3.3,1.6-5.5,1.6c-2.7,0-5-0.9-6.7-2.8
			c-1.8-1.9-2.6-4.4-2.6-7.7c0-3.4,0.9-6.1,2.7-8c1.8-1.9,4.1-2.8,7-2.8c2.5,0,4.6,0.7,6.1,2.2c0.9,0.9,1.6,2.1,2.1,3.8l-4.1,1
			c-0.2-1.1-0.8-1.9-1.5-2.5s-1.7-0.9-2.8-0.9c-1.5,0-2.8,0.5-3.7,1.6s-1.4,2.9-1.4,5.3c0,2.6,0.5,4.5,1.4,5.6
			c0.9,1.1,2.2,1.7,3.7,1.7c1.1,0,2.1-0.4,2.9-1.1C107.3,327.9,107.9,326.8,108.2,325.3z"/>
	</g>
</g>
<g>
	<path class="st1" d="M157.3,297h21.9c6.4,0,11.5,5.2,11.5,11.5v70.2c0,6.4-5.2,11.5-11.5,11.5h-21.9c-6.4,0-11.5-5.2-11.5-11.5
		v-70.2C145.8,302.1,151,297,157.3,297z"/>
	<g class="st2">
		<path class="st3" d="M173.1,325.3l4,1.3c-0.6,2.2-1.6,3.9-3.1,5c-1.4,1.1-3.3,1.6-5.5,1.6c-2.7,0-5-0.9-6.7-2.8
			c-1.8-1.9-2.6-4.4-2.6-7.7c0-3.4,0.9-6.1,2.7-8c1.8-1.9,4.1-2.8,7-2.8c2.5,0,4.6,0.7,6.1,2.2c0.9,0.9,1.6,2.1,2.1,3.8l-4.1,1
			c-0.2-1.1-0.8-1.9-1.5-2.5s-1.7-0.9-2.8-0.9c-1.5,0-2.8,0.5-3.7,1.6s-1.4,2.9-1.4,5.3c0,2.6,0.5,4.5,1.4,5.6
			c0.9,1.1,2.2,1.7,3.7,1.7c1.1,0,2.1-0.4,2.9-1.1C172.2,327.9,172.8,326.8,173.1,325.3z"/>
	</g>
</g>
<g>
	<path class="st1" d="M222.2,297h21.9c6.4,0,11.5,5.2,11.5,11.5v70.2c0,6.4-5.2,11.5-11.5,11.5h-21.9c-6.4,0-11.5-5.2-11.5-11.5
		v-70.2C210.7,302.1,215.9,297,222.2,297z"/>
	<g class="st2">
		<path class="st3" d="M224.8,312.2h4.2v11.2c0,1.8,0.1,2.9,0.2,3.4c0.2,0.8,0.6,1.5,1.3,2c0.7,0.5,1.6,0.8,2.7,0.8
			c1.2,0,2.1-0.2,2.7-0.7c0.6-0.5,1-1.1,1.1-1.8c0.1-0.7,0.2-1.9,0.2-3.5v-11.4h4.2v10.8c0,2.5-0.1,4.2-0.3,5.2
			c-0.2,1-0.6,1.9-1.2,2.6c-0.6,0.7-1.4,1.3-2.4,1.7c-1,0.4-2.3,0.6-4,0.6c-2,0-3.5-0.2-4.5-0.7s-1.8-1-2.4-1.8s-1-1.5-1.2-2.3
			c-0.3-1.2-0.4-2.9-0.4-5.2V312.2z"/>
	</g>
</g>
<g>
	<rect x="12.4" y="380.1" class="st4" width="303.9" height="19"/>
</g>
<path class="st0" d="M60.5,187.5c-6.9,0-12.5-5.6-12.5-12.5s5.6-12.5,12.5-12.5s12.5,5.6,12.5,12.5S67.3,187.5,60.5,187.5z
	 M60.5,168.6c-3.6,0-6.5,2.9-6.5,6.5s2.9,6.5,6.5,6.5s6.5-2.9,6.5-6.5S64,168.6,60.5,168.6z"/>
<path class="st0" d="M60.5,231.5c-6.9,0-12.5-5.6-12.5-12.5s5.6-12.5,12.5-12.5s12.5,5.6,12.5,12.5S67.3,231.5,60.5,231.5z
	 M60.5,212.6c-3.6,0-6.5,2.9-6.5,6.5s2.9,6.5,6.5,6.5s6.5-2.9,6.5-6.5S64,212.6,60.5,212.6z"/>
<path class="st0" d="M60.5,141.5c-6.9,0-12.5-5.6-12.5-12.5s5.6-12.5,12.5-12.5s12.5,5.6,12.5,12.5S67.3,141.5,60.5,141.5z
	 M60.5,122.6c-3.6,0-6.5,2.9-6.5,6.5s2.9,6.5,6.5,6.5s6.5-2.9,6.5-6.5S64,122.6,60.5,122.6z"/>
<path class="st0" d="M36.6,216.6L14.3,178h18c1.7,0,3-1.3,3-3s-1.3-3-3-3H14.8l21.8-37.8c1.3-2.2,0.5-5.1-1.7-6.4
	c-2.2-1.3-5.1-0.5-6.4,1.7L3.9,172.2c-0.8,0.9-1.2,2-1.1,3.1c0,1.1,0.4,2.3,1.1,3.1l24.7,42.7c0.9,1.5,2.4,2.3,4,2.3
	c0.8,0,1.6-0.2,2.3-0.6C37.1,221.7,37.9,218.8,36.6,216.6z"/>
<g>
	<circle class="st5" cx="474.1" cy="135.3" r="34.9"/>
	<path class="st6" d="M484.2,134h-9.6c-0.3,0-0.5,0.2-0.5,0.5v3.7c0,0.3,0.2,0.5,0.5,0.5h4.6v2c-0.6,0.4-1.3,0.8-2.1,1.1
		c-0.9,0.3-1.8,0.5-2.6,0.5c-1.8,0-3.1-0.6-4.2-1.8c-1.1-1.2-1.6-3.1-1.6-5.6c0-2.3,0.5-4,1.6-5.1c1.1-1.1,2.5-1.7,4.3-1.7
		c1.2,0,2.1,0.3,2.9,0.8c0.8,0.6,1.3,1.3,1.6,2.3c0.1,0.2,0.3,0.4,0.6,0.4l4.4-0.8c0.1,0,0.2-0.1,0.3-0.2c0.1-0.1,0.1-0.3,0.1-0.4
		c-0.5-2.1-1.5-3.8-3.2-5.1c-1.6-1.2-3.9-1.8-6.7-1.8c-2.2,0-4,0.4-5.5,1.2c-1.9,1-3.4,2.4-4.4,4.3c-1,1.9-1.5,4-1.5,6.4
		c0,2.2,0.5,4.2,1.3,6.1c0.9,1.9,2.3,3.4,4.1,4.4c1.8,1,3.9,1.5,6.3,1.5c1.9,0,3.7-0.4,5.6-1.1c1.8-0.7,3.2-1.5,4.2-2.5
		c0.1-0.1,0.2-0.2,0.2-0.4v-8.8C484.7,134.2,484.5,134,484.2,134z"/>
</g>
<g>
	<circle class="st5" cx="414.8" cy="206.3" r="34.9"/>
	<path class="st6" d="M423.5,213.1H413v-17.7c0-0.3-0.2-0.5-0.5-0.5H408c-0.3,0-0.5,0.2-0.5,0.5v21.9c0,0.3,0.2,0.5,0.5,0.5h15.5
		c0.3,0,0.5-0.2,0.5-0.5v-3.7C424,213.3,423.8,213.1,423.5,213.1z"/>
</g>
<g>
	<circle class="st5" cx="414.8" cy="294.6" r="34.9"/>
	<path class="st6" d="M425.4,283.3c-0.1-0.1-0.2-0.2-0.4-0.2h-4.7c-0.2,0-0.4,0.1-0.5,0.3l-4.9,14.9l-5.1-14.9
		c-0.1-0.2-0.3-0.3-0.5-0.3h-4.8c-0.2,0-0.3,0.1-0.4,0.2c-0.1,0.1-0.1,0.3-0.1,0.5l7.9,22c0.1,0.2,0.3,0.3,0.5,0.3h4.8
		c0.2,0,0.4-0.1,0.5-0.3l7.9-22C425.6,283.6,425.5,283.5,425.4,283.3z"/>
</g>
<g>
	<circle class="st5" cx="474.1" cy="365.7" r="34.9"/>
	<path class="st6" d="M482.1,354.2H467c-0.3,0-0.5,0.2-0.5,0.5v22c0,0.3,0.2,0.5,0.5,0.5h4.5c0.3,0,0.5-0.2,0.5-0.5v-8.9h8.7
		c0.3,0,0.5-0.2,0.5-0.5v-3.7c0-0.3-0.2-0.5-0.5-0.5h-8.7v-4.2h10.2c0.3,0,0.5-0.2,0.5-0.5v-3.7
		C482.6,354.4,482.3,354.2,482.1,354.2z"/>
</g>
</svg>
