<svg id="Layer_1" data-name="Layer 1" xmlns="http://www.w3.org/2000/svg" viewBox="0 0 500 500"><defs><style>.cls-1,.cls-3{fill:#fff;}.cls-1,.cls-5{stroke:#11397e;stroke-linecap:round;}.cls-1,.cls-4,.cls-5{stroke-miterlimit:10;}.cls-1{stroke-width:9.3px;}.cls-2{fill:#369;}.cls-3{font-size:25px;font-family:Arial-Black, Arial Black;font-weight:800;}.cls-4,.cls-5{fill:none;}.cls-4{stroke:#10397d;stroke-width:19px;}.cls-5{stroke-width:6px;}.cls-6{fill:#10397d;}</style></defs><title>Omics</title><line class="cls-1" x1="126.06" y1="197.96" x2="88.14" y2="219.86"/><line class="cls-1" x1="163.81" y1="219.86" x2="125.88" y2="197.96"/><line class="cls-1" x1="126.06" y1="156.93" x2="88.14" y2="178.83"/><line class="cls-1" x1="163.81" y1="178.83" x2="125.88" y2="156.93"/><line class="cls-1" x1="126.06" y1="117" x2="88.14" y2="138.89"/><line class="cls-1" x1="163.81" y1="138.89" x2="125.88" y2="117"/><line class="cls-1" x1="201.55" y1="117" x2="163.63" y2="138.89"/><line class="cls-1" x1="239.3" y1="138.89" x2="201.37" y2="117"/><line class="cls-1" x1="277.04" y1="117" x2="239.12" y2="138.89"/><line class="cls-1" x1="314.79" y1="138.89" x2="276.86" y2="117"/><line class="cls-1" x1="201.55" y1="157.48" x2="163.63" y2="179.38"/><line class="cls-1" x1="239.3" y1="179.38" x2="201.37" y2="157.48"/><line class="cls-1" x1="277.04" y1="157.48" x2="239.12" y2="179.38"/><line class="cls-1" x1="314.79" y1="179.38" x2="276.86" y2="157.48"/><line class="cls-1" x1="201.55" y1="197.96" x2="163.63" y2="219.86"/><line class="cls-1" x1="239.3" y1="219.86" x2="201.37" y2="197.96"/><line class="cls-1" x1="277.04" y1="197.96" x2="239.12" y2="219.86"/><line class="cls-1" x1="314.79" y1="219.86" x2="276.86" y2="197.96"/><line class="cls-1" x1="19.84" y1="179.46" x2="41.73" y2="141.53"/><line class="cls-1" x1="41.73" y1="217.2" x2="19.84" y2="179.28"/><rect class="cls-2" x="32" y="284.5" width="39" height="81" rx="10"/><text class="cls-3" transform="translate(41.82 315.67)">A</text><rect class="cls-2" x="88.5" y="285" width="39" height="81" rx="10"/><text class="cls-3" transform="translate(98.32 316.17)">C</text><rect class="cls-2" x="147.5" y="285" width="39" height="81" rx="10"/><text class="cls-3" transform="translate(157.32 316.17)">C</text><rect class="cls-2" x="201.5" y="285" width="39" height="81" rx="10"/><text class="cls-3" transform="translate(210.63 316.17)">U</text><line class="cls-4" x1="28.5" y1="365.5" x2="292.5" y2="365.5"/><circle class="cls-5" cx="65.94" cy="179.06" r="8.21"/><circle class="cls-5" cx="65.94" cy="217.35" r="8.21"/><circle class="cls-5" cx="65.94" cy="139.12" r="8.21"/><line class="cls-5" x1="19.5" y1="179" x2="41.5" y2="179"/><circle class="cls-6" cx="418.83" cy="157.5" r="28.33"/><text class="cls-3" transform="translate(408.42 164.5)">G</text><circle class="cls-6" cx="390.83" cy="231.5" r="28.33"/><text class="cls-3" transform="translate(382.5 238.5)">L</text><circle class="cls-6" cx="394.83" cy="305.5" r="28.33"/><text class="cls-3" transform="translate(385.11 312.5)">V</text><circle class="cls-6" cx="451.83" cy="364.5" r="28.33"/><text class="cls-3" transform="translate(443.5 371.5)">F</text></svg>