<?xml version="1.0" encoding="utf-8"?>
<!-- Generator: Adobe Illustrator 24.3.0, SVG Export Plug-In . SVG Version: 6.00 Build 0)  -->
<svg version="1.1" id="Layer_1" xmlns="http://www.w3.org/2000/svg" xmlns:xlink="http://www.w3.org/1999/xlink" x="0px" y="0px"
	 viewBox="0 0 512 512" style="enable-background:new 0 0 512 512;" xml:space="preserve">
<style type="text/css">
	.st0{fill:#8C1515;}
	.st1{fill:#F9C002;}
	.st2{fill:#2094E8;}
	.st3{fill:#56BF46;}
</style>
<path class="st0" d="M396.8,352h22.4c6.4,0,12.8-6.4,12.8-12.8V108.8c0-6.4-6.4-12.8-12.8-12.8h-22.4c-6.4,0-12.8,6.4-12.8,12.8
	v230.4C384,345.6,390.4,352,396.8,352z"/>
<path class="st1" d="M204.8,352h22.4c6.4,0,12.8-6.4,12.8-12.8V140.8c0-6.4-6.4-12.8-12.8-12.8h-22.4c-6.4,0-12.8,6.4-12.8,12.8
	v198.4C192,345.6,198.4,352,204.8,352z"/>
<path class="st2" d="M300.8,352h22.4c6.4,0,12.8-6.4,12.8-12.8V204.8c0-6.4-6.4-12.8-12.8-12.8h-22.4c-6.4,0-12.8,6.4-12.8,12.8
	v134.4C288,345.6,294.4,352,300.8,352z"/>
<path d="M496,400H48V80c0-8.9-7.1-16-16-16H16C7.1,64,0,71.1,0,80v336c0,17.7,14.3,32,32,32h464c8.9,0,16-7.1,16-16v-16
	C512,407.1,504.9,400,496,400z"/>
<path class="st3" d="M108.8,352h22.4c6.4,0,12.8-6.4,12.8-12.8v-70.4c0-6.4-6.4-12.8-12.8-12.8h-22.4c-6.4,0-12.8,6.4-12.8,12.8
	v70.4C96,345.6,102.4,352,108.8,352z"/>
</svg>
