<?xml version="1.0" encoding="utf-8"?>
<!-- Generator: Adobe Illustrator 24.3.0, SVG Export Plug-In . SVG Version: 6.00 Build 0)  -->
<svg version="1.1" id="Layer_1" focusable="false" xmlns="http://www.w3.org/2000/svg" xmlns:xlink="http://www.w3.org/1999/xlink"
	 x="0px" y="0px" viewBox="0 0 512 512" style="enable-background:new 0 0 512 512;" xml:space="preserve">
<style type="text/css">
	.st0{fill:#4D4D4D;}
</style>
<path class="st0" d="M500,384c6.6,0,12,5.4,12,12v40c0,6.6-5.4,12-12,12H12c-6.6,0-12-5.4-12-12V76c0-6.6,5.4-12,12-12h40
	c6.6,0,12,5.4,12,12v308H500z"/>
<path class="st0" d="M372.7,159.5L288,216l-85.3-113.7c-5.1-6.8-15.5-6.3-19.9,1L96,248v104h384l-89.9-187.8
	C386.9,157.7,378.7,155.5,372.7,159.5z"/>
</svg>
