<?xml version="1.0" encoding="UTF-8"?>
<svg id="Layer_1" data-name="Layer 1" xmlns="http://www.w3.org/2000/svg" version="1.1" viewBox="0 0 72 68.8">
  <defs>
    <style>
      .cls-1 {
        fill: #231f20;
        stroke-width: 0px;
      }
    </style>
  </defs>
  <path class="cls-1" d="M36,0C16.3-.2.2,15.6,0,35.2c0,15.3,10,28.8,24.6,33.5,1.8.3,2.5-.8,2.5-1.7v-6c-10,2.1-12.1-4.7-12.1-4.7-.7-2.1-2.1-4-4-5.2-3.3-2.2.3-2.1.3-2.1,2.3.3,4.3,1.6,5.5,3.6,2.1,3.7,6.8,5,10.5,2.9.2-1.8,1-3.5,2.3-4.7-8-.9-16.4-3.9-16.4-17.4,0-3.5,1.2-6.9,3.6-9.5-1.1-3-1-6.4.4-9.3,0,0,3-.9,9.8,3.6,5.9-1.6,12.1-1.6,18,0,6.9-4.5,9.8-3.6,9.8-3.6,1.3,2.9,1.5,6.3.4,9.3,2.5,2.5,3.8,5.9,3.8,9.5,0,13.5-8.4,16.5-16.4,17.4,1.8,1.7,2.7,4.1,2.5,6.5v9.7s.7,2.1,2.5,1.7c14.6-4.7,24.5-18.2,24.5-33.4C71.8,15.6,55.7-.2,36,0"/>
</svg>