<?xml version="1.0" encoding="UTF-8"?>
<svg id="Layer_1" data-name="Layer 1" xmlns="http://www.w3.org/2000/svg" version="1.1" viewBox="0 0 72 57.9">
  <defs>
    <style>
      .cls-1 {
        fill: #fbbc05;
      }

      .cls-1, .cls-2, .cls-3, .cls-4 {
        stroke-width: 0px;
      }

      .cls-2 {
        fill: #34a853;
      }

      .cls-3 {
        fill: #4285f4;
      }

      .cls-4 {
        fill: #ea4335;
      }
    </style>
  </defs>
  <path class="cls-4" d="M47.9,16l6.3-6.3.4-2.6C43.2-3.3,25-2.1,14.7,9.5c-2.9,3.2-5,7.3-6.1,11.4l2.2-.3,12.5-2.1,1-1c5.6-6.1,15-6.9,21.4-1.7h2.1Z"/>
  <path class="cls-3" d="M63.1,20.8c-1.4-5.3-4.4-10.1-8.5-13.7l-8.8,8.8c3.7,3,5.8,7.6,5.7,12.4v1.6c4.3,0,7.8,3.5,7.8,7.8s-3.5,7.7-7.8,7.7h-15.7l-1.5,1.7v9.4l1.5,1.5h15.7c11.2,0,20.4-8.9,20.5-20.1,0-6.8-3.3-13.2-8.9-17"/>
  <path class="cls-2" d="M20.2,57.9h15.6v-12.5h-15.6c-1.1,0-2.2-.2-3.2-.7l-2.2.7-6.3,6.3-.5,2.1c3.5,2.7,7.8,4.2,12.3,4.2"/>
  <path class="cls-1" d="M20.2,17.3C9,17.3,0,26.5,0,37.7c0,6.3,3,12.2,7.9,16l9.1-9.1c-3.9-1.8-5.7-6.4-3.9-10.3,1.8-3.9,6.4-5.7,10.3-3.9,1.7.8,3.1,2.2,3.9,3.9l9.1-9.1c-3.9-5-9.9-8-16.2-8"/>
</svg>