<?xml version="1.0" encoding="UTF-8"?>
<svg id="Layer_1" xmlns="http://www.w3.org/2000/svg" version="1.1" viewBox="0 0 448 512">
  <!-- Generator: Adobe Illustrator 30.2.1, SVG Export Plug-In . SVG Version: 2.1.1 Build 1)  -->
  <defs>
    <style>
      .st0 {
        fill: #fff;
      }
    </style>
  </defs>
  <path class="st0" d="M320,48c0-26.51-21.49-48-48-48s-48,21.49-48,48,21.49,48,48,48,48-21.49,48-48ZM125.7,175.5c9.9-9.9,23.4-15.5,37.5-15.5,1.9,0,3.8.1,5.6.3l-31.2,93.7c-9.3,28,1.7,58.8,26.8,74.5l86.2,53.9-25.4,88.8c-4.9,17,5,34.7,22,39.6s34.7-5,39.6-22l28.7-100.4c5.9-20.6-2.6-42.6-20.7-53.9l-56.8-35.5,30.9-82.4,5.1,12.3c15,35.8,49.9,59.1,88.7,59.1h21.3c17.7,0,32-14.3,32-32s-14.3-32-32-32h-21.3c-12.9,0-24.6-7.8-29.5-19.7l-6.3-15c-14.6-35.1-44.1-61.9-80.5-73.1l-48.7-15c-11.1-3.4-22.7-5.2-34.4-5.2-31,0-60.8,12.3-82.7,34.3l-23.2,23.1c-12.5,12.5-12.5,32.8,0,45.3s32.8,12.5,45.3,0l23.1-23.1-.1-.1ZM91.2,352h-59.2c-17.7,0-32,14.3-32,32s14.3,32,32,32h69.6c19,0,36.2-11.2,43.9-28.5l11.5-25.9-9.5-6c-17.5-10.9-30.5-26.8-37.9-44.9l-18.4,41.3Z"/>
</svg>