<?xml version="1.0" encoding="UTF-8"?>
<svg id="Layer_3" xmlns="http://www.w3.org/2000/svg" version="1.1" viewBox="0 0 1458.75 520.38">
  <!-- Generator: Adobe Illustrator 29.1.0, SVG Export Plug-In . SVG Version: 2.1.0 Build 142)  -->
  <defs>
    <style>
      .st0, .st1, .st2, .st3, .st4, .st5, .st6, .st7, .st8 {
        stroke-miterlimit: 10;
      }

      .st0, .st1, .st3, .st7 {
        stroke-width: 2.5px;
      }

      .st0, .st3, .st7 {
        stroke: #e59648;
      }

      .st0, .st5 {
        fill: #f7e7d0;
      }

      .st1, .st2, .st7 {
        fill: #d3e0f1;
      }

      .st1, .st5 {
        stroke: #2151c4;
      }

      .st2, .st4 {
        stroke: #aeaeae;
      }

      .st3 {
        fill: #f9e6cd;
      }

      .st9 {
        font-family: HelveticaNeue-Medium, 'Helvetica Neue';
        font-size: 36px;
        font-weight: 500;
      }

      .st4, .st6 {
        fill: #fff;
      }

      .st10 {
        fill: #4172d0;
      }

      .st10, .st11, .st12, .st13 {
        font-family: HelveticaNeue-Bold, 'Helvetica Neue';
        font-size: 16px;
        font-weight: 700;
      }

      .st11 {
        fill: #78a558;
      }

      .st14 {
        fill: #666;
      }

      .st12 {
        fill: #da9346;
      }

      .st6 {
        stroke: #ea3323;
        stroke-width: 3.5px;
      }

      .st8 {
        fill: none;
        stroke: #666;
        stroke-width: 2px;
      }
    </style>
  </defs>
  <g>
    <rect class="st4" x="287.5" y="350.88" width="230" height="55"/>
    <rect class="st4" x="517.5" y="350.88" width="230" height="55"/>
    <rect class="st4" x="287.5" y="405.88" width="230" height="55"/>
    <rect class="st4" x="517.5" y="405.88" width="230" height="55"/>
    <rect class="st1" x="287.5" y="295.88" width="230" height="55"/>
    <rect class="st1" x="517.5" y="295.88" width="230" height="55"/>
    <rect class="st5" x="57.5" y="350.88" width="230" height="55"/>
    <rect class="st5" x="57.5" y="405.88" width="230" height="55"/>
    <rect class="st0" x="57.5" y="295.88" width="230" height="55"/>
  </g>
  <g>
    <rect class="st4" x="997.5" y="350.88" width="230" height="55"/>
    <rect class="st4" x="1227.5" y="350.88" width="230" height="55"/>
    <rect class="st4" x="997.5" y="405.88" width="230" height="55"/>
    <rect class="st4" x="1227.5" y="405.88" width="230" height="55"/>
    <rect class="st1" x="997.5" y="295.88" width="230" height="55"/>
    <rect class="st1" x="1227.5" y="295.88" width="230" height="55"/>
    <rect class="st5" x="767.5" y="350.88" width="230" height="55"/>
    <rect class="st5" x="767.5" y="405.88" width="230" height="55"/>
    <rect class="st0" x="767.5" y="295.88" width="230" height="55"/>
  </g>
  <g>
    <rect class="st2" x="57.5" y="101.88" width="200" height="55"/>
    <rect class="st4" x="457.5" y="101.88" width="200" height="55"/>
    <rect class="st4" x="657.5" y="101.88" width="200" height="55"/>
    <rect class="st4" x="857.5" y="101.88" width="200" height="55"/>
    <rect class="st4" x="1057.5" y="101.88" width="200" height="55"/>
    <rect class="st4" x="1257.5" y="101.88" width="200" height="55"/>
    <rect class="st2" x="57.5" y="156.88" width="200" height="55"/>
    <rect class="st4" x="457.5" y="156.88" width="200" height="55"/>
    <rect class="st4" x="657.5" y="156.88" width="200" height="55"/>
    <rect class="st4" x="857.5" y="156.88" width="200" height="55"/>
    <rect class="st4" x="1057.5" y="156.88" width="200" height="55"/>
    <rect class="st4" x="1257.5" y="156.88" width="200" height="55"/>
    <rect class="st7" x="57.5" y="46.88" width="200" height="55"/>
    <rect class="st3" x="257.5" y="46.88" width="200" height="55"/>
    <rect class="st3" x="457.5" y="46.88" width="200" height="55"/>
    <rect class="st3" x="657.5" y="46.88" width="200" height="55"/>
    <rect class="st3" x="857.5" y="46.88" width="200" height="55"/>
    <rect class="st3" x="1057.5" y="46.88" width="200" height="55"/>
    <rect class="st3" x="1257.5" y="46.88" width="200" height="55"/>
    <rect class="st6" x="257.5" y="101.88" width="200" height="55"/>
    <rect class="st6" x="257.5" y="156.88" width="200" height="55"/>
  </g>
  <g>
    <text class="st12" transform="translate(65.5 384.09)"><tspan x="0" y="0">ENSRNOG00000000001</tspan></text>
    <text class="st11" transform="translate(386.93 384.09)"><tspan x="0" y="0">18.0</tspan></text>
    <text class="st11" transform="translate(621.38 384.09)"><tspan x="0" y="0">2.0</tspan></text>
    <text class="st12" transform="translate(65.5 439.09)"><tspan x="0" y="0">ENSRNOG00000000007</tspan></text>
    <text class="st11" transform="translate(386.93 439.09)"><tspan x="0" y="0">10.0</tspan></text>
    <text class="st11" transform="translate(621.38 439.09)"><tspan x="0" y="0">6.0</tspan></text>
    <text class="st13" transform="translate(65.5 329.09)"><tspan x="0" y="0">gene_id</tspan></text>
    <text class="st10" transform="translate(356.44 329.09)"><tspan x="0" y="0">Sample_01a</tspan></text>
    <text class="st10" transform="translate(586.44 329.09)"><tspan x="0" y="0">Sample_02a</tspan></text>
  </g>
  <g>
    <text class="st12" transform="translate(775.5 384.09)"><tspan x="0" y="0">Compound_01</tspan></text>
    <text class="st11" transform="translate(1101.38 384.09)"><tspan x="0" y="0">3.5</tspan></text>
    <text class="st11" transform="translate(1331.38 384.09)"><tspan x="0" y="0">2.0</tspan></text>
    <text class="st12" transform="translate(775.5 439.09)"><tspan x="0" y="0">Compound_02</tspan></text>
    <text class="st11" transform="translate(1101.38 439.09)"><tspan x="0" y="0">1.3</tspan></text>
    <text class="st11" transform="translate(1331.38 439.09)"><tspan x="0" y="0">0.7</tspan></text>
    <text class="st13" transform="translate(775.5 329.09)"><tspan x="0" y="0">metabolite_name</tspan></text>
    <text class="st10" transform="translate(1066.14 329.09)"><tspan x="0" y="0">Sample_01b</tspan></text>
    <text class="st10" transform="translate(1296.14 329.09)"><tspan x="0" y="0">Sample_02b</tspan></text>
  </g>
  <g>
    <text class="st10" transform="translate(65.5 135.09)"><tspan x="0" y="0">Sample_01a</tspan></text>
    <text class="st13" transform="translate(265.5 135.09)"><tspan x="0" y="0">10029885</tspan></text>
    <text class="st13" transform="translate(465.5 135.09)"><tspan x="0" y="0">One-week program</tspan></text>
    <text class="st13" transform="translate(665.5 135.09)"><tspan x="0" y="0">2</tspan></text>
    <text class="st13" transform="translate(865.5 135.09)"><tspan x="0" y="0">432</tspan></text>
    <text class="st13" transform="translate(1065.5 135.09)"><tspan x="0" y="0">58</tspan></text>
    <text class="st13" transform="translate(1265.5 135.09)"><tspan x="0" y="0">-1</tspan></text>
    <text class="st10" transform="translate(65.5 190.09)"><tspan x="0" y="0">Sample_01b</tspan></text>
    <text class="st13" transform="translate(265.5 190.09)"><tspan x="0" y="0">10029885</tspan></text>
    <text class="st13" transform="translate(465.5 190.09)"><tspan x="0" y="0">One-week program</tspan></text>
    <text class="st13" transform="translate(665.5 190.09)"><tspan x="0" y="0">2</tspan></text>
    <text class="st13" transform="translate(865.5 190.09)"><tspan x="0" y="0">432</tspan></text>
    <text class="st13" transform="translate(1065.5 190.09)"><tspan x="0" y="0">58</tspan></text>
    <text class="st13" transform="translate(1265.5 190.09)"><tspan x="0" y="0">4</tspan></text>
    <text class="st13" transform="translate(65.5 80.09)"><tspan x="0" y="0">viallabel</tspan></text>
    <text class="st13" transform="translate(265.5 80.09)"><tspan x="0" y="0">pid</tspan></text>
    <text class="st13" transform="translate(465.5 80.09)"><tspan x="0" y="0">key___ani_rand_group</tspan></text>
    <text class="st13" transform="translate(665.5 80.09)"><tspan x="0" y="0">registration___sex</tspan></text>
    <text class="st13" transform="translate(865.5 80.09)"><tspan x="0" y="0">terminal_weight___mg</tspan></text>
    <text class="st13" transform="translate(1065.5 70.49)"><tspan x="0" y="0">vo_2_max_test___vo_2_</tspan><tspan x="0" y="19.2">max_1</tspan></text>
    <text class="st13" transform="translate(1265.5 70.49)"><tspan x="0" y="0">calculated_variables___</tspan><tspan x="0" y="19.2">vo_2_max_change</tspan></text>
  </g>
  <g>
    <polyline class="st8" points="402 289.38 402 257.38 1 257.38 1 129.38 51 129.38"/>
    <circle class="st14" cx="51" cy="129.38" r="6"/>
    <circle class="st14" cx="402" cy="288.88" r="6"/>
    <rect class="st14" x="45.05" y="179.43" width="9.9" height="9.9" transform="translate(-115.73 89.36) rotate(-45)"/>
    <rect class="st14" x="1108.05" y="282.93" width="9.9" height="9.9" transform="translate(122.43 871.33) rotate(-45)"/>
    <polyline class="st8" points="1113 290.38 1113 235.38 23 235.38 23 184.38 51 184.38"/>
  </g>
  <text class="st9" transform="translate(620.96 30.85)"><tspan x="0" y="0">Phenotypic data</tspan></text>
  <text class="st9" transform="translate(273.28 503.35)"><tspan x="0" y="0">RNAseq results</tspan></text>
  <text class="st9" transform="translate(933.76 503.35)"><tspan x="0" y="0">Metabolomics results</tspan></text>
</svg>