<?xml version="1.0" encoding="UTF-8"?>
<svg id="Layer_3" xmlns="http://www.w3.org/2000/svg" version="1.1" viewBox="0 0 1458.75 520.67">
  <!-- Generator: Adobe Illustrator 29.1.0, SVG Export Plug-In . SVG Version: 2.1.0 Build 142)  -->
  <defs>
    <style>
      .st0, .st1, .st2, .st3, .st4, .st5, .st6, .st7, .st8 {
        stroke-miterlimit: 10;
      }

      .st0, .st1, .st3, .st7 {
        stroke-width: 2.5px;
      }

      .st0, .st3, .st7 {
        stroke: #e59648;
      }

      .st0, .st5 {
        fill: #f7e7d0;
      }

      .st1, .st2, .st7 {
        fill: #d3e0f1;
      }

      .st1, .st5 {
        stroke: #2151c4;
      }

      .st2, .st4 {
        stroke: #aeaeae;
      }

      .st3 {
        fill: #f9e6cd;
      }

      .st9, .st10 {
        font-size: 36px;
      }

      .st9, .st11 {
        font-family: HelveticaNeue-Medium, 'Helvetica Neue';
        font-weight: 500;
      }

      .st4, .st6 {
        fill: #fff;
      }

      .st12 {
        fill: #4172d0;
      }

      .st12, .st13, .st14, .st15, .st16 {
        font-family: HelveticaNeue-Bold, 'Helvetica Neue';
        font-weight: 700;
      }

      .st12, .st13, .st14, .st16 {
        font-size: 16px;
      }

      .st13 {
        fill: #78a558;
      }

      .st17 {
        fill: #666;
      }

      .st14 {
        fill: #da9346;
      }

      .st6 {
        stroke: #ea3323;
        stroke-width: 3.5px;
      }

      .st8 {
        fill: none;
        stroke: #666;
        stroke-width: 2px;
      }
    </style>
  </defs>
  <g>
    <rect class="st4" x="287.5" y="352.88" width="230" height="55"/>
    <rect class="st4" x="517.5" y="352.88" width="230" height="55"/>
    <rect class="st4" x="287.5" y="407.88" width="230" height="55"/>
    <rect class="st4" x="517.5" y="407.88" width="230" height="55"/>
    <rect class="st1" x="287.5" y="297.88" width="230" height="55"/>
    <rect class="st1" x="517.5" y="297.88" width="230" height="55"/>
    <rect class="st5" x="57.5" y="352.88" width="230" height="55"/>
    <rect class="st5" x="57.5" y="407.88" width="230" height="55"/>
    <rect class="st0" x="57.5" y="297.88" width="230" height="55"/>
  </g>
  <g>
    <rect class="st4" x="997.5" y="352.88" width="230" height="55"/>
    <rect class="st4" x="1227.5" y="352.88" width="230" height="55"/>
    <rect class="st4" x="997.5" y="407.88" width="230" height="55"/>
    <rect class="st4" x="1227.5" y="407.88" width="230" height="55"/>
    <rect class="st1" x="997.5" y="297.88" width="230" height="55"/>
    <rect class="st1" x="1227.5" y="297.88" width="230" height="55"/>
    <rect class="st5" x="767.5" y="352.88" width="230" height="55"/>
    <rect class="st5" x="767.5" y="407.88" width="230" height="55"/>
    <rect class="st0" x="767.5" y="297.88" width="230" height="55"/>
  </g>
  <g>
    <rect class="st2" x="57.5" y="103.88" width="200" height="55"/>
    <rect class="st4" x="457.5" y="103.88" width="200" height="55"/>
    <rect class="st4" x="657.5" y="103.88" width="200" height="55"/>
    <rect class="st4" x="857.5" y="103.88" width="200" height="55"/>
    <rect class="st4" x="1057.5" y="103.88" width="200" height="55"/>
    <rect class="st4" x="1257.5" y="103.88" width="200" height="55"/>
    <rect class="st2" x="57.5" y="158.88" width="200" height="55"/>
    <rect class="st4" x="457.5" y="158.88" width="200" height="55"/>
    <rect class="st4" x="657.5" y="158.88" width="200" height="55"/>
    <rect class="st4" x="857.5" y="158.88" width="200" height="55"/>
    <rect class="st4" x="1057.5" y="158.88" width="200" height="55"/>
    <rect class="st4" x="1257.5" y="158.88" width="200" height="55"/>
    <rect class="st7" x="57.5" y="48.88" width="200" height="55"/>
    <rect class="st3" x="257.5" y="48.88" width="200" height="55"/>
    <rect class="st3" x="457.5" y="48.88" width="200" height="55"/>
    <rect class="st3" x="657.5" y="48.88" width="200" height="55"/>
    <rect class="st3" x="857.5" y="48.88" width="200" height="55"/>
    <rect class="st3" x="1057.5" y="48.88" width="200" height="55"/>
    <rect class="st3" x="1257.5" y="48.88" width="200" height="55"/>
    <rect class="st6" x="257.5" y="103.88" width="200" height="55"/>
    <rect class="st6" x="257.5" y="158.88" width="200" height="55"/>
  </g>
  <g>
    <text class="st14" transform="translate(65.5 386.09)"><tspan x="0" y="0">ENSRNOG00000000001</tspan></text>
    <text class="st13" transform="translate(386.93 386.09)"><tspan x="0" y="0">18.0</tspan></text>
    <text class="st13" transform="translate(621.38 386.09)"><tspan x="0" y="0">2.0</tspan></text>
    <text class="st14" transform="translate(65.5 441.09)"><tspan x="0" y="0">ENSRNOG00000000007</tspan></text>
    <text class="st13" transform="translate(386.93 441.09)"><tspan x="0" y="0">10.0</tspan></text>
    <text class="st13" transform="translate(621.38 441.09)"><tspan x="0" y="0">6.0</tspan></text>
    <text class="st16" transform="translate(65.5 331.09)"><tspan x="0" y="0">gene_id</tspan></text>
    <text class="st12" transform="translate(356.44 331.09)"><tspan x="0" y="0">Sample_01a</tspan></text>
    <text class="st12" transform="translate(586.44 331.09)"><tspan x="0" y="0">Sample_02a</tspan></text>
  </g>
  <g>
    <text class="st14" transform="translate(775.5 386.09)"><tspan x="0" y="0">Compound_01</tspan></text>
    <text class="st13" transform="translate(1101.38 386.09)"><tspan x="0" y="0">3.5</tspan></text>
    <text class="st13" transform="translate(1331.38 386.09)"><tspan x="0" y="0">2.0</tspan></text>
    <text class="st14" transform="translate(775.5 441.09)"><tspan x="0" y="0">Compound_02</tspan></text>
    <text class="st13" transform="translate(1101.38 441.09)"><tspan x="0" y="0">1.3</tspan></text>
    <text class="st13" transform="translate(1331.38 441.09)"><tspan x="0" y="0">0.7</tspan></text>
    <text class="st16" transform="translate(775.5 331.09)"><tspan x="0" y="0">metabolite_name</tspan></text>
    <text class="st12" transform="translate(1066.14 331.09)"><tspan x="0" y="0">Sample_01b</tspan></text>
    <text class="st12" transform="translate(1296.14 331.09)"><tspan x="0" y="0">Sample_02b</tspan></text>
  </g>
  <g>
    <text class="st12" transform="translate(65.5 137.09)"><tspan x="0" y="0">Sample_01a</tspan></text>
    <text class="st16" transform="translate(265.5 137.09)"><tspan x="0" y="0">10029885</tspan></text>
    <text class="st16" transform="translate(465.5 137.09)"><tspan x="0" y="0">One-week program</tspan></text>
    <text class="st16" transform="translate(665.5 137.09)"><tspan x="0" y="0">2</tspan></text>
    <text class="st16" transform="translate(865.5 137.09)"><tspan x="0" y="0">432</tspan></text>
    <text class="st16" transform="translate(1065.5 137.09)"><tspan x="0" y="0">58</tspan></text>
    <text class="st16" transform="translate(1265.5 137.09)"><tspan x="0" y="0">-1</tspan></text>
    <text class="st12" transform="translate(65.5 192.09)"><tspan x="0" y="0">Sample_01b</tspan></text>
    <text class="st16" transform="translate(265.5 192.09)"><tspan x="0" y="0">10029885</tspan></text>
    <text class="st16" transform="translate(465.5 192.09)"><tspan x="0" y="0">One-week program</tspan></text>
    <text class="st16" transform="translate(665.5 192.09)"><tspan x="0" y="0">2</tspan></text>
    <text class="st16" transform="translate(865.5 192.09)"><tspan x="0" y="0">432</tspan></text>
    <text class="st16" transform="translate(1065.5 192.09)"><tspan x="0" y="0">58</tspan></text>
    <text class="st16" transform="translate(1265.5 192.09)"><tspan x="0" y="0">4</tspan></text>
    <text class="st16" transform="translate(65.5 82.09)"><tspan x="0" y="0">viallabel</tspan></text>
    <text class="st16" transform="translate(265.5 82.09)"><tspan x="0" y="0">pid</tspan></text>
    <text class="st16" transform="translate(465.5 82.09)"><tspan x="0" y="0">key___ani_rand_group</tspan></text>
    <text class="st16" transform="translate(665.5 82.09)"><tspan x="0" y="0">registration___sex</tspan></text>
    <text class="st16" transform="translate(865.5 82.09)"><tspan x="0" y="0">terminal_weight___mg</tspan></text>
    <text class="st16" transform="translate(1065.5 72.49)"><tspan x="0" y="0">vo_2_max_test___vo_2_</tspan><tspan x="0" y="19.2">max_1</tspan></text>
    <text class="st16" transform="translate(1265.5 72.49)"><tspan x="0" y="0">calculated_variables___</tspan><tspan x="0" y="19.2">vo_2_max_change</tspan></text>
  </g>
  <g>
    <polyline class="st8" points="402 291.38 402 259.38 1 259.38 1 131.38 51 131.38"/>
    <circle class="st17" cx="51" cy="131.38" r="6"/>
    <circle class="st17" cx="402" cy="290.88" r="6"/>
    <rect class="st17" x="45.05" y="181.43" width="9.9" height="9.9" transform="translate(-117.14 89.94) rotate(-45)"/>
    <rect class="st17" x="1108.05" y="284.93" width="9.9" height="9.9" transform="translate(121.02 871.91) rotate(-45)"/>
    <polyline class="st8" points="1113 292.38 1113 237.38 23 237.38 23 186.38 51 186.38"/>
  </g>
  <text class="st9" transform="translate(620.96 32.85)"><tspan x="0" y="0">Phenotypic data</tspan></text>
  <text class="st10" transform="translate(265.96 505.35)"><tspan class="st11" x="0" y="0">RNA</tspan><tspan class="st15" x="75.35" y="0">-</tspan><tspan class="st11" x="90" y="0">seq results</tspan></text>
  <text class="st9" transform="translate(933.76 505.35)"><tspan x="0" y="0">Metabolomics results</tspan></text>
</svg>